<?xml version="1.0" standalone="no"?>
<!DOCTYPE svg PUBLIC "-//W3C//DTD SVG 20010904//EN"
 "http://www.w3.org/TR/2001/REC-SVG-20010904/DTD/svg10.dtd">
<svg version="1.0" xmlns="http://www.w3.org/2000/svg"
 width="64.000000pt" height="64.000000pt" viewBox="0 0 64.000000 64.000000"
 preserveAspectRatio="xMidYMid meet">

<g transform="translate(0.000000,64.000000) scale(0.100000,-0.100000)"
fill="#000000" stroke="none">
<path d="M120 550 c0 -40 4 -70 10 -70 6 0 10 20 10 45 l0 45 40 -20 c57 -29
230 -29 278 0 18 11 35 20 37 20 3 0 5 -20 5 -45 0 -25 5 -45 10 -45 6 0 10
30 10 70 0 39 -3 70 -6 70 -3 0 -19 -11 -35 -25 -74 -61 -244 -61 -318 0 -16
14 -32 25 -35 25 -3 0 -6 -31 -6 -70z"/>
<path d="M145 455 c-77 -76 32 -192 118 -125 l25 20 12 -35 c15 -44 25 -44 40
0 l12 35 25 -20 c36 -28 88 -26 118 5 53 52 16 145 -57 145 -47 0 -73 -22 -94
-80 -10 -27 -21 -50 -24 -50 -3 0 -14 23 -24 50 -10 28 -28 57 -39 65 -33 23
-84 19 -112 -10z m100 -20 c14 -13 25 -31 25 -40 0 -21 -44 -65 -65 -65 -21 0
-65 44 -65 65 0 21 44 65 65 65 9 0 27 -11 40 -25z m230 0 c14 -13 25 -31 25
-40 0 -9 -11 -27 -25 -40 -13 -14 -31 -25 -40 -25 -9 0 -27 11 -40 25 -14 13
-25 31 -25 40 0 9 11 27 25 40 13 14 31 25 40 25 9 0 27 -11 40 -25z"/>
<path d="M196 401 c-4 -5 -2 -12 3 -15 5 -4 12 -2 15 3 4 5 2 12 -3 15 -5 4
-12 2 -15 -3z"/>
<path d="M426 401 c-4 -5 -2 -12 3 -15 5 -4 12 -2 15 3 4 5 2 12 -3 15 -5 4
-12 2 -15 -3z"/>
<path d="M87 303 c-4 -3 -7 -31 -7 -62 0 -73 30 -135 87 -174 23 -17 43 -33
43 -36 0 -3 50 -6 110 -6 61 0 110 3 110 6 0 3 21 20 46 37 59 42 86 101 82
179 -2 31 -8 58 -14 60 -29 10 -113 -97 -114 -144 0 -26 20 -12 35 24 17 40
52 83 68 83 16 0 -1 -90 -24 -127 -48 -77 -162 -112 -269 -83 -56 15 -114 72
-129 125 -13 47 -14 85 -3 85 15 0 51 -44 67 -83 15 -36 35 -50 35 -24 -1 28
-39 95 -69 120 -34 28 -43 32 -54 20z"/>
</g>
</svg>
