<?xml version="1.0" standalone="no"?>
<!DOCTYPE svg PUBLIC "-//W3C//DTD SVG 20010904//EN"
 "http://www.w3.org/TR/2001/REC-SVG-20010904/DTD/svg10.dtd">
<svg version="1.0" xmlns="http://www.w3.org/2000/svg"
 width="64.000000pt" height="64.000000pt" viewBox="0 0 64.000000 64.000000"
 preserveAspectRatio="xMidYMid meet">

<g transform="translate(0.000000,64.000000) scale(0.100000,-0.100000)"
fill="#000000" stroke="none">
<path d="M368 569 c-25 -25 -29 -36 -27 -74 3 -43 1 -46 -77 -122 -137 -135
-250 -266 -246 -286 3 -15 10 -17 50 -11 55 8 62 12 42 24 -19 12 -12 13 85
10 68 -1 82 -5 97 -23 12 -16 14 -25 6 -34 -8 -10 5 -13 61 -13 46 0 70 4 66
10 -3 6 -12 10 -19 10 -22 0 -39 28 -32 53 3 13 32 42 65 66 51 38 75 62 135
140 9 11 7 13 -11 7 -42 -13 -42 5 -1 42 71 64 89 146 44 199 -23 26 -29 28
-117 29 -90 2 -93 1 -121 -27z m93 -25 c18 -16 29 -15 60 7 22 16 66 3 74 -22
18 -54 -24 -126 -85 -147 -60 -21 -140 48 -140 121 0 50 54 74 91 41z m-46
-284 c-21 -23 -167 -100 -189 -100 -28 0 -17 14 43 58 32 24 68 54 80 66 21
22 24 23 52 9 29 -14 29 -16 14 -33z"/>
<path d="M414 495 c-8 -20 4 -35 27 -35 12 0 23 -10 29 -25 12 -31 18 -31 30
-1 5 14 19 26 32 28 27 4 37 35 13 44 -9 4 -25 -2 -39 -15 l-23 -21 -18 20
c-21 24 -43 26 -51 5z"/>
</g>
</svg>
