<?xml version="1.0" standalone="no"?>
<!DOCTYPE svg PUBLIC "-//W3C//DTD SVG 20010904//EN"
 "http://www.w3.org/TR/2001/REC-SVG-20010904/DTD/svg10.dtd">
<svg version="1.0" xmlns="http://www.w3.org/2000/svg"
 width="840.000000pt" height="554.000000pt" viewBox="0 0 840.000000 554.000000"
 preserveAspectRatio="xMidYMid meet">

<g transform="translate(0.000000,554.000000) scale(0.100000,-0.100000)"
fill="#000000" stroke="none">
<path d="M8150 5056 c-225 -390 -824 -946 -1625 -1508 -283 -198 -786 -525
-952 -619 -24 -13 -43 -29 -43 -35 0 -6 18 -50 40 -97 160 -348 230 -761 185
-1107 -46 -365 -170 -668 -405 -988 l-35 -47 40 32 c22 17 65 58 96 90 258
270 413 626 470 1083 14 111 17 441 6 588 -5 69 -5 102 3 102 21 0 544 250
736 352 664 352 1044 633 1220 903 192 294 310 757 302 1176 l-3 136 -35 -61z"/>
<path d="M210 5028 c1 -395 83 -793 222 -1073 155 -310 420 -546 988 -879 176
-103 706 -372 930 -473 110 -50 134 -64 132 -79 -2 -11 -6 -134 -9 -275 -6
-282 6 -423 53 -637 53 -240 160 -489 287 -669 61 -85 254 -290 264 -279 3 3
-15 31 -40 63 -224 287 -371 679 -397 1061 -22 341 58 738 211 1044 16 32 29
59 29 62 0 2 -57 39 -127 82 -1009 615 -1864 1285 -2295 1797 -68 80 -228 311
-228 328 0 5 -4 9 -10 9 -6 0 -10 -34 -10 -82z"/>
<path d="M470 3532 c0 -33 60 -229 96 -315 163 -387 455 -689 869 -899 217
-109 478 -197 701 -235 l101 -17 12 -95 c26 -196 101 -441 191 -622 43 -84
142 -236 190 -289 l32 -35 -26 47 c-135 244 -213 472 -251 738 -22 147 -29
422 -16 559 6 63 9 116 7 118 -2 2 -68 28 -147 57 -639 235 -1295 603 -1696
953 -50 44 -63 51 -63 35z"/>
<path d="M7874 3499 c-423 -362 -1051 -716 -1697 -954 -128 -47 -156 -62 -151
-74 13 -32 17 -447 5 -565 -28 -266 -94 -498 -206 -723 -79 -159 -68 -160 37
-4 152 228 266 542 294 810 4 32 9 63 13 68 3 5 59 19 123 31 368 69 736 227
1003 431 92 70 250 227 319 316 108 139 173 253 239 420 34 85 91 284 84 291
-2 2 -30 -19 -63 -47z"/>
<path d="M4670 3026 c167 -69 285 -149 416 -280 182 -182 292 -386 350 -651
24 -110 24 -368 0 -480 -59 -271 -185 -498 -376 -679 -177 -165 -405 -280
-640 -322 -115 -20 -332 -19 -439 1 -530 103 -930 509 -1016 1033 -23 138 -17
370 13 493 59 241 172 442 347 614 102 101 195 167 335 238 104 53 90 53 -35
0 -295 -126 -562 -386 -705 -685 -98 -206 -130 -339 -137 -575 -8 -260 28
-440 131 -658 203 -427 584 -720 1043 -801 131 -23 367 -23 488 0 519 98 937
455 1104 944 92 268 103 545 31 827 -111 440 -434 804 -865 975 -88 35 -126
40 -45 6z"/>
<path d="M1092 2223 c56 -79 207 -231 297 -299 91 -69 283 -168 392 -203 81
-27 257 -61 309 -61 39 0 41 -2 71 -62 35 -70 91 -154 138 -208 l30 -35 -40
97 c-42 105 -97 295 -124 430 l-17 84 -121 12 c-209 20 -527 111 -828 238 -71
30 -131 54 -134 54 -4 0 9 -21 27 -47z"/>
<path d="M7270 2243 c-83 -38 -354 -138 -481 -178 -139 -44 -326 -82 -441 -91
-68 -5 -89 -11 -92 -23 -3 -9 -15 -59 -26 -111 -30 -138 -76 -293 -115 -389
-29 -71 -31 -81 -14 -65 28 26 130 179 153 232 17 38 22 42 56 42 62 0 205 28
308 61 248 79 489 243 642 438 98 125 98 125 10 84z"/>
</g>
</svg>
