<?xml version="1.0" standalone="no"?>
<!DOCTYPE svg PUBLIC "-//W3C//DTD SVG 20010904//EN"
 "http://www.w3.org/TR/2001/REC-SVG-20010904/DTD/svg10.dtd">
<svg version="1.0" xmlns="http://www.w3.org/2000/svg"
 width="474.000000pt" height="283.000000pt" viewBox="0 0 474.000000 283.000000"
 preserveAspectRatio="xMidYMid meet">

<g transform="translate(0.000000,283.000000) scale(0.100000,-0.100000)"
fill="#000000" stroke="none">
<path d="M263 2543 c10 -199 48 -349 123 -495 107 -206 399 -405 1007 -686
l39 -18 3 -194 c2 -154 7 -213 23 -282 26 -107 71 -223 119 -301 35 -59 152
-192 160 -183 2 2 -12 25 -32 51 -52 68 -130 236 -157 335 -20 73 -23 109 -23
250 0 184 15 258 81 418 19 45 34 84 34 86 0 3 -28 22 -62 42 -604 364 -1105
772 -1277 1042 -18 28 -36 52 -39 52 -3 0 -2 -53 1 -117z"/>
<path d="M4348 2594 c-183 -268 -655 -654 -1225 -1003 -57 -35 -103 -66 -103
-71 0 -4 12 -34 26 -66 146 -328 118 -702 -73 -988 -29 -43 -53 -82 -53 -84 0
-12 74 66 117 123 133 175 202 431 190 710 l-5 131 46 18 c81 32 414 200 518
261 164 96 284 184 371 270 67 68 90 99 127 177 72 146 123 389 114 537 l-3
53 -47 -68z"/>
<path d="M396 1833 c16 -68 67 -192 105 -255 133 -224 406 -400 725 -465 l83
-17 12 -71 c25 -154 101 -335 177 -425 28 -33 27 -29 -14 55 -82 167 -120 373
-107 575 l6 86 -104 38 c-295 109 -572 261 -807 443 -78 61 -82 63 -76 36z"/>
<path d="M4208 1814 c-77 -66 -236 -172 -368 -246 -176 -98 -248 -131 -543
-246 -17 -7 -19 -20 -18 -157 2 -217 -34 -385 -113 -533 -46 -85 -17 -58 44
41 59 96 105 218 125 334 8 48 16 87 18 88 1 1 31 8 67 14 176 33 399 131 524
231 118 94 187 179 251 310 30 60 80 210 70 210 -2 0 -27 -21 -57 -46z"/>
<path d="M1990 1555 c-183 -98 -322 -269 -374 -460 -75 -272 24 -581 242 -760
386 -319 971 -170 1159 297 139 342 -14 747 -347 922 -89 47 -103 46 -20 -1
100 -56 208 -170 259 -273 128 -260 81 -540 -124 -746 -92 -93 -201 -154 -320
-179 -290 -61 -588 84 -720 350 -97 198 -84 441 35 629 51 80 157 181 235 223
33 18 56 32 50 32 -5 0 -39 -15 -75 -34z"/>
<path d="M728 1162 c45 -57 123 -127 187 -168 75 -47 203 -94 280 -101 l61 -6
28 -52 c15 -29 38 -63 51 -75 l25 -23 -21 43 c-12 24 -34 94 -49 155 -27 106
-29 110 -56 113 -125 11 -263 48 -428 113 -54 21 -100 39 -103 39 -3 0 9 -17
25 -38z"/>
<path d="M3830 1153 c-138 -53 -270 -90 -364 -100 l-70 -8 -22 -92 c-13 -51
-34 -120 -48 -154 -24 -60 -24 -61 -3 -41 12 12 35 45 51 75 30 54 30 55 85
60 122 11 279 82 379 172 52 47 117 123 111 129 -2 2 -56 -16 -119 -41z"/>
</g>
</svg>
