<?xml version="1.0" standalone="no"?>
<!DOCTYPE svg PUBLIC "-//W3C//DTD SVG 20010904//EN"
 "http://www.w3.org/TR/2001/REC-SVG-20010904/DTD/svg10.dtd">
<svg version="1.0" xmlns="http://www.w3.org/2000/svg"
 width="287.000000pt" height="176.000000pt" viewBox="0 0 287.000000 176.000000"
 preserveAspectRatio="xMidYMid meet">

<g transform="translate(0.000000,176.000000) scale(0.100000,-0.100000)"
fill="#000000" stroke="none">
<path d="M2823 1686 c-24 -34 -89 -108 -145 -164 -184 -182 -390 -334 -766
-568 -2 -1 6 -20 17 -42 64 -126 86 -352 47 -492 -19 -71 -71 -180 -112 -238
-19 -27 -13 -23 24 16 89 96 141 219 163 387 6 54 9 129 6 169 l-5 71 186 92
c472 231 590 367 623 717 6 59 9 109 7 111 -2 2 -22 -25 -45 -59z"/>
<path d="M10 1667 c0 -169 58 -341 147 -437 99 -107 297 -234 543 -349 l116
-53 1 -137 c2 -214 55 -374 163 -491 l51 -55 -31 48 c-141 215 -164 457 -65
701 14 35 20 62 15 64 -35 12 -447 298 -555 385 -143 115 -308 279 -355 353
l-30 48 0 -77z"/>
<path d="M105 1148 c4 -18 25 -70 47 -116 70 -149 215 -268 401 -333 45 -16
103 -32 129 -35 45 -6 48 -8 54 -43 14 -84 37 -158 69 -220 38 -75 79 -133 46
-65 -54 111 -88 295 -76 409 l7 60 -79 29 c-174 65 -383 179 -525 287 l-80 61
7 -34z"/>
<path d="M2730 1148 c-114 -97 -371 -242 -547 -309 l-88 -33 -1 -125 c-2 -139
-23 -239 -69 -330 -14 -28 -23 -51 -21 -51 2 0 18 21 35 48 39 61 77 163 91
244 l11 64 66 12 c153 29 324 121 420 226 66 71 153 243 141 275 -2 5 -19 -4
-38 -21z"/>
<path d="M1204 974 c-18 -14 -18 -15 4 -4 12 6 22 13 22 15 0 8 -5 6 -26 -11z"/>
<path d="M1680 963 c100 -69 179 -192 201 -312 52 -292 -223 -573 -512 -522
-369 64 -511 509 -247 773 66 66 50 64 -26 -3 -108 -95 -166 -228 -166 -378 1
-105 12 -157 53 -241 94 -191 322 -306 536 -270 345 58 526 433 364 755 -29
57 -140 171 -193 198 -31 16 -32 16 -10 0z"/>
<path d="M330 700 c61 -86 183 -161 295 -182 62 -12 67 -15 91 -55 34 -59 45
-62 24 -5 -10 26 -23 73 -30 105 -13 55 -14 57 -45 57 -46 0 -174 35 -270 73
l-84 34 19 -27z"/>
<path d="M2520 710 c-31 -20 -233 -81 -289 -87 -58 -6 -59 -6 -65 -42 -3 -20
-14 -63 -25 -96 -11 -33 -18 -61 -16 -63 2 -2 15 16 29 40 24 42 29 44 89 55
88 15 170 58 244 127 58 54 74 76 56 76 -5 0 -15 -5 -23 -10z"/>
</g>
</svg>
