<?xml version="1.0" standalone="no"?>
<!DOCTYPE svg PUBLIC "-//W3C//DTD SVG 20010904//EN"
 "http://www.w3.org/TR/2001/REC-SVG-20010904/DTD/svg10.dtd">
<svg version="1.0" xmlns="http://www.w3.org/2000/svg"
 width="820.000000pt" height="512.000000pt" viewBox="0 0 820.000000 512.000000"
 preserveAspectRatio="xMidYMid meet">

<g transform="translate(0.000000,512.000000) scale(0.100000,-0.100000)"
fill="#000000" stroke="none">
<path d="M2268 4330 c-19 -65 -3 -349 32 -570 70 -435 248 -878 519 -1295 129
-198 202 -288 545 -669 148 -164 290 -327 316 -361 57 -75 90 -158 90 -223 0
-101 -90 -228 -223 -315 -63 -42 -178 -93 -233 -103 -64 -12 -34 -24 59 -24
177 0 337 62 450 173 91 90 130 171 135 287 11 220 -63 329 -617 920 -205 218
-311 344 -442 523 -303 417 -470 784 -558 1227 -27 134 -57 336 -63 420 -3 32
-4 33 -10 10z"/>
<path d="M5921 4313 c-1 -23 -10 -104 -21 -180 -90 -611 -275 -1040 -669
-1553 -124 -162 -177 -223 -380 -438 -542 -577 -620 -693 -609 -912 3 -74 9
-98 38 -156 46 -95 135 -179 242 -232 105 -52 188 -72 306 -72 92 0 122 12 58
24 -103 19 -254 104 -342 192 -76 75 -108 142 -109 229 0 128 31 173 415 596
254 279 307 342 404 472 212 286 408 653 521 977 102 295 167 667 164 950 -1
100 -16 186 -18 103z"/>
<path d="M1897 3783 c-3 -4 -13 -55 -22 -112 -29 -173 -11 -366 51 -550 49
-143 190 -394 324 -576 157 -213 496 -542 805 -781 132 -102 388 -284 400
-284 4 0 -119 129 -273 287 -632 650 -815 882 -1016 1283 -94 189 -148 334
-212 570 -25 90 -47 166 -49 168 -1 2 -5 0 -8 -5z"/>
<path d="M6271 3708 c-42 -159 -101 -348 -137 -440 -77 -197 -233 -478 -370
-668 -124 -172 -438 -521 -811 -900 -116 -118 -210 -216 -208 -218 6 -6 226
148 370 259 344 264 668 578 846 819 127 172 262 415 313 561 62 182 80 376
52 550 -10 57 -21 108 -26 112 -4 5 -17 -29 -29 -75z"/>
<path d="M1761 2853 c26 -100 176 -366 278 -493 192 -241 532 -522 851 -702
169 -97 514 -258 525 -246 3 2 -95 69 -216 148 -400 259 -664 468 -926 732
-141 142 -368 405 -466 540 -23 32 -45 58 -49 58 -3 0 -2 -17 3 -37z"/>
<path d="M6353 2782 c-400 -523 -797 -874 -1467 -1297 -60 -38 -104 -71 -99
-72 16 -6 316 131 458 209 313 170 635 419 845 654 95 105 218 290 285 427 52
108 81 188 67 186 -4 0 -44 -48 -89 -107z"/>
<path d="M1971 2008 c132 -251 465 -486 811 -574 109 -28 360 -68 522 -84 105
-11 149 -8 90 5 -225 50 -371 104 -695 253 -295 137 -548 281 -690 393 -44 35
-54 36 -38 7z"/>
<path d="M6165 1984 c-175 -131 -418 -265 -778 -428 -192 -87 -323 -135 -487
-177 -161 -42 -161 -45 1 -29 162 17 418 58 522 85 347 90 675 323 806 573 17
31 4 27 -64 -24z"/>
<path d="M2181 1373 c86 -114 174 -157 404 -195 132 -21 464 -16 615 10 260
45 257 50 -35 51 -408 2 -712 43 -918 125 -75 31 -84 32 -66 9z"/>
<path d="M5960 1368 c-173 -80 -515 -127 -925 -129 -291 -1 -294 -5 -35 -51
164 -29 490 -31 645 -5 205 36 291 79 374 190 18 23 0 22 -59 -5z"/>
<path d="M3405 1124 c-29 -22 -158 -86 -239 -118 -101 -40 -182 -55 -366 -66
-91 -5 -185 -16 -210 -23 l-45 -14 56 -27 c78 -37 158 -49 261 -42 168 13 297
60 429 157 60 44 149 130 149 144 0 9 -15 5 -35 -11z"/>
<path d="M4760 1135 c0 -14 89 -100 149 -144 132 -97 257 -143 427 -156 104
-8 183 4 263 41 42 19 52 27 41 34 -23 13 -162 30 -243 30 -93 0 -246 24 -320
49 -74 26 -238 103 -276 130 -29 21 -41 26 -41 16z"/>
</g>
</svg>
